<?xml version="1.0" encoding="UTF-8" standalone="no"?>
<!-- Created with Inkscape (http://www.inkscape.org/) -->

<svg
   xmlns:dc="http://purl.org/dc/elements/1.1/"
   xmlns:cc="http://creativecommons.org/ns#"
   xmlns:rdf="http://www.w3.org/1999/02/22-rdf-syntax-ns#"
   xmlns:svg="http://www.w3.org/2000/svg"
   xmlns="http://www.w3.org/2000/svg"
   xmlns:sodipodi="http://sodipodi.sourceforge.net/DTD/sodipodi-0.dtd"
   xmlns:inkscape="http://www.inkscape.org/namespaces/inkscape"
   width="793.70081"
   height="1122.5197"
   viewBox="0 0 210 297"
   version="1.1"
   id="svg8"
   inkscape:version="0.92.4 (5da689c313, 2019-01-14)"
   sodipodi:docname="logo.svg">
  <defs
     id="defs2" />
  <sodipodi:namedview
     id="base"
     pagecolor="#ffffff"
     bordercolor="#666666"
     borderopacity="1.0"
     inkscape:pageopacity="0.0"
     inkscape:pageshadow="2"
     inkscape:zoom="0.71980922"
     inkscape:cx="396.8504"
     inkscape:cy="561.25983"
     inkscape:document-units="mm"
     inkscape:current-layer="layer1"
     showgrid="false"
     units="px"
     inkscape:window-width="1920"
     inkscape:window-height="1001"
     inkscape:window-x="-9"
     inkscape:window-y="-9"
     inkscape:window-maximized="1" />
  <metadata
     id="metadata5">
    <rdf:RDF>
      <cc:Work
         rdf:about="">
        <dc:format>image/svg+xml</dc:format>
        <dc:type
           rdf:resource="http://purl.org/dc/dcmitype/StillImage" />
        <dc:title></dc:title>
      </cc:Work>
    </rdf:RDF>
  </metadata>
  <g
     inkscape:label="Layer 1"
     inkscape:groupmode="layer"
     id="layer1">
    <g
       id="g4691"
       transform="matrix(1.1510533,0,0,1.1510533,0.66599586,35.242682)"
       inkscape:export-xdpi="96"
       inkscape:export-ydpi="96">
      <g
         style="fill:none;fill-rule:evenodd;stroke:none;stroke-width:1"
         transform="matrix(2.2510813,0,0,2.2510813,106.58507,2.588115)"
         id="ðŸ”-Product-Icons">
        <g
           transform="rotate(17.960974,-18.963204,21.978126)"
           style="fill:#212121;fill-rule:nonzero"
           id="ic_fluent_board_24_regular">
          <path
             inkscape:connector-curvature="0"
             d="m 18.251352,2.4982051 c 1.733045,0 3.149299,1.3563212 3.244911,3.0654696 l 0.0051,0.1844269 -6e-4,12.0038214 c -2.09e-4,1.794829 -1.455219,3.249913 -3.250104,3.249913 H 6.2500562 c -1.7330447,0 -3.1492992,-1.356322 -3.2449113,-3.06547 L 3,17.751939 3.0006006,5.7481178 C 3.0008096,3.9532889 4.455819,2.4982051 6.2506479,2.4982051 Z m -6.751352,7 -7,10e-4 1.035e-4,8.2526619 0.00717,0.160727 C 4.5883865,18.803788 5.3376532,19.501836 6.25,19.501836 l 5.25,-6.31e-4 z m 8.5,5.9999999 -7,10e-4 v 4.002 l 5.250648,6.31e-4 c 0.966514,0 1.750047,-0.783574 1.75016,-1.750031 z M 18.251408,3.9982051 13,3.9972051 V 13.999205 l 7,-10e-4 0.0013,-8.2500309 -0.0072,-0.160727 C 19.91299,4.6962528 19.163722,3.9982051 18.251375,3.9982051 Z m -6.751408,-10e-4 -5.2492677,10e-4 -0.1435016,0.00581 C 5.2078517,4.0770851 4.5007075,4.8301014 4.5006006,5.7482362 L 4.5,7.9992051 l 7,-0.001 z"
             id="ðŸŽ¨-Color" />
        </g>
      </g>
      <path
         transform="scale(0.26458333)"
         inkscape:connector-curvature="0"
         id="path4678"
         d="m 470.06425,248.11484 c -23.04677,-7.53861 -27.09051,-10.34149 -27.09051,-18.77755 0,-2.60508 4.71741,-19.2934 10.48314,-37.08516 5.76573,-17.79176 10.61076,-32.771 10.76674,-33.2872 0.27489,-0.90972 53.25491,15.93684 54.71694,17.39887 1.33905,1.33905 -24.57685,78.70648 -26.3407,78.63561 -0.93322,-0.0375 -11.07424,-3.13555 -22.53561,-6.88457 z"
         style="fill:#00ffff;fill-opacity:1;stroke:#00ffff;stroke-width:3.77952766;stroke-linecap:round;stroke-linejoin:round;stroke-miterlimit:4;stroke-dasharray:none;stroke-opacity:0.94499966" />
      <path
         transform="scale(0.26458333)"
         inkscape:connector-curvature="0"
         id="path4684"
         d="m 548.55727,224.30354 c -14.13569,-4.66184 -25.86986,-8.62006 -26.07592,-8.79605 -0.28437,-0.24285 23.38116,-74.5638 25.04601,-78.6563 0.1844,-0.4533 10.22527,2.35994 22.31304,6.25165 22.61165,7.27993 27.63752,10.17438 29.32228,16.887 1.12568,4.48504 -20.67439,72.86475 -23.21557,72.8197 -0.92872,-0.0165 -13.25415,-3.84416 -27.38984,-8.506 z"
         style="fill:#00ff00;fill-opacity:1;stroke:#00ff00;stroke-width:5.25073528;stroke-linecap:round;stroke-linejoin:round;stroke-miterlimit:4;stroke-dasharray:none;stroke-opacity:0.94499966" />
    </g>
    <g
       id="g4894"
       transform="matrix(0.12318647,-0.04033189,0.04033189,0.12318647,18.536464,75.459206)"
       inkscape:export-xdpi="96"
       inkscape:export-ydpi="96">
      <path
         id="path4868"
         d="M 375.5,16 H 359 V 7.5 C 359,3.357 355.643,0 351.5,0 347.357,0 344,3.357 344,7.5 V 16 H 311 V 7.5 C 311,3.357 307.643,0 303.5,0 299.357,0 296,3.357 296,7.5 V 16 H 263 V 7.5 C 263,3.357 259.643,0 255.5,0 251.357,0 248,3.357 248,7.5 V 16 H 215 V 7.5 C 215,3.357 211.643,0 207.5,0 203.357,0 200,3.357 200,7.5 V 16 H 167 V 7.5 C 167,3.357 163.643,0 159.5,0 155.357,0 152,3.357 152,7.5 V 16 H 119 V 7.5 C 119,3.357 115.643,0 111.5,0 107.357,0 104,3.357 104,7.5 V 16 H 87.5 C 74.542,16 64,26.542 64,39.5 v 400 c 0,12.958 10.542,23.5 23.5,23.5 h 288 c 12.958,0 23.5,-10.542 23.5,-23.5 V 39.5 C 399,26.542 388.458,16 375.5,16 Z m 8.5,423.5 c 0,4.687 -3.813,8.5 -8.5,8.5 H 87.5 C 82.813,448 79,444.187 79,439.5 V 39.5 C 79,34.813 82.813,31 87.5,31 H 104 v 8.5 c 0,4.143 3.357,7.5 7.5,7.5 4.143,0 7.5,-3.357 7.5,-7.5 V 31 h 33 v 8.5 c 0,4.143 3.357,7.5 7.5,7.5 4.143,0 7.5,-3.357 7.5,-7.5 V 31 h 33 v 8.5 c 0,4.143 3.357,7.5 7.5,7.5 4.143,0 7.5,-3.357 7.5,-7.5 V 31 h 33 v 8.5 c 0,4.143 3.357,7.5 7.5,7.5 4.143,0 7.5,-3.357 7.5,-7.5 V 31 h 33 v 8.5 c 0,4.143 3.357,7.5 7.5,7.5 4.143,0 7.5,-3.357 7.5,-7.5 V 31 h 33 v 8.5 c 0,4.143 3.357,7.5 7.5,7.5 4.143,0 7.5,-3.357 7.5,-7.5 V 31 h 16.5 c 4.687,0 8.5,3.813 8.5,8.5 z"
         inkscape:connector-curvature="0" />
      <path
         id="path4870"
         d="m 207.5,119 h 112 c 4.143,0 7.5,-3.357 7.5,-7.5 0,-4.143 -3.357,-7.5 -7.5,-7.5 h -112 c -4.143,0 -7.5,3.357 -7.5,7.5 0,4.143 3.357,7.5 7.5,7.5 z"
         inkscape:connector-curvature="0" />
      <path
         id="path4872"
         d="m 351.5,136 h -144 c -4.143,0 -7.5,3.357 -7.5,7.5 0,4.143 3.357,7.5 7.5,7.5 h 144 c 4.143,0 7.5,-3.357 7.5,-7.5 0,-4.143 -3.357,-7.5 -7.5,-7.5 z"
         inkscape:connector-curvature="0" />
      <path
         id="path4874"
         d="M 170.196,98.196 135.5,132.894 116.804,114.197 c -2.93,-2.928 -7.678,-2.928 -10.607,0 -2.929,2.93 -2.929,7.678 0,10.607 l 24,24 c 1.465,1.464 3.385,2.196 5.304,2.196 1.919,0 3.839,-0.732 5.304,-2.196 l 40,-40 c 2.929,-2.93 2.929,-7.678 0,-10.607 -2.931,-2.928 -7.679,-2.928 -10.609,-0.001 z"
         inkscape:connector-curvature="0" />
      <path
         id="path4876"
         d="m 207.5,199 h 112 c 4.143,0 7.5,-3.357 7.5,-7.5 0,-4.143 -3.357,-7.5 -7.5,-7.5 h -112 c -4.143,0 -7.5,3.357 -7.5,7.5 0,4.143 3.357,7.5 7.5,7.5 z"
         inkscape:connector-curvature="0" />
      <path
         id="path4878"
         d="m 351.5,216 h -144 c -4.143,0 -7.5,3.357 -7.5,7.5 0,4.143 3.357,7.5 7.5,7.5 h 144 c 4.143,0 7.5,-3.357 7.5,-7.5 0,-4.143 -3.357,-7.5 -7.5,-7.5 z"
         inkscape:connector-curvature="0" />
      <path
         id="path4880"
         d="M 170.196,178.196 135.5,212.894 116.804,194.197 c -2.93,-2.928 -7.678,-2.928 -10.607,0 -2.929,2.93 -2.929,7.678 0,10.607 l 24,24 c 1.465,1.464 3.385,2.196 5.304,2.196 1.919,0 3.839,-0.732 5.304,-2.196 l 40,-40 c 2.929,-2.93 2.929,-7.678 0,-10.607 -2.931,-2.928 -7.679,-2.928 -10.609,-0.001 z"
         inkscape:connector-curvature="0" />
      <path
         id="path4882"
         d="m 207.5,279 h 112 c 4.143,0 7.5,-3.357 7.5,-7.5 0,-4.143 -3.357,-7.5 -7.5,-7.5 h -112 c -4.143,0 -7.5,3.357 -7.5,7.5 0,4.143 3.357,7.5 7.5,7.5 z"
         inkscape:connector-curvature="0" />
      <path
         id="path4884"
         d="m 351.5,296 h -144 c -4.143,0 -7.5,3.357 -7.5,7.5 0,4.143 3.357,7.5 7.5,7.5 h 144 c 4.143,0 7.5,-3.357 7.5,-7.5 0,-4.143 -3.357,-7.5 -7.5,-7.5 z"
         inkscape:connector-curvature="0" />
      <path
         id="path4886"
         d="M 170.196,258.196 135.5,292.894 116.804,274.197 c -2.93,-2.928 -7.678,-2.928 -10.607,0 -2.929,2.93 -2.929,7.678 0,10.607 l 24,24 c 1.465,1.464 3.385,2.196 5.304,2.196 1.919,0 3.839,-0.732 5.304,-2.196 l 40,-40 c 2.929,-2.93 2.929,-7.678 0,-10.607 -2.931,-2.928 -7.679,-2.928 -10.609,-10e-4 z"
         inkscape:connector-curvature="0" />
      <path
         id="path4888"
         d="m 207.5,359 h 112 c 4.143,0 7.5,-3.357 7.5,-7.5 0,-4.143 -3.357,-7.5 -7.5,-7.5 h -112 c -4.143,0 -7.5,3.357 -7.5,7.5 0,4.143 3.357,7.5 7.5,7.5 z"
         inkscape:connector-curvature="0" />
      <path
         id="path4890"
         d="m 351.5,376 h -144 c -4.143,0 -7.5,3.357 -7.5,7.5 0,4.143 3.357,7.5 7.5,7.5 h 144 c 4.143,0 7.5,-3.357 7.5,-7.5 0,-4.143 -3.357,-7.5 -7.5,-7.5 z"
         inkscape:connector-curvature="0" />
      <path
         id="path4892"
         d="M 170.196,338.196 135.5,372.894 116.804,354.197 c -2.93,-2.928 -7.678,-2.928 -10.607,0 -2.929,2.93 -2.929,7.678 0,10.607 l 24,24 c 1.465,1.464 3.385,2.196 5.304,2.196 1.919,0 3.839,-0.732 5.304,-2.196 l 40,-40 c 2.929,-2.93 2.929,-7.678 0,-10.607 -2.931,-2.928 -7.679,-2.928 -10.609,-10e-4 z"
         inkscape:connector-curvature="0" />
    </g>
    <g
       id="g5118"
       transform="matrix(0.12457353,0,0,0.12457353,76.800845,49.491597)"
       style="fill:#ffff00"
       inkscape:export-xdpi="96"
       inkscape:export-ydpi="96">
      <g
         id="g5056"
         style="fill:#ffff00">
	<path
   id="path5042"
   d="m 250.197,128.078 c -57.517,0 -104.093,46.626 -104.093,104.108 0,27.267 10.493,58.861 27.658,84.518 18.556,27.774 31.28,59.401 36.94,92.321 l 2.653,15.51 h 73.648 l 2.668,-15.576 c 5.727,-33.169 18.237,-64.234 36.941,-92.225 17.164,-25.672 27.672,-57.268 27.672,-84.549 0.001,-57.481 -46.591,-104.107 -104.087,-104.107 z"
   inkscape:connector-curvature="0"
   style="fill:#ffff00" />

	<path
   id="path5044"
   d="m 213.865,464.032 c 0,20.049 16.264,36.313 36.313,36.313 20.054,0 36.303,-16.248 36.303,-36.297 v -15.164 h -72.615 v 15.148 z"
   inkscape:connector-curvature="0"
   style="fill:#ffff00" />

	<path
   id="path5046"
   d="m 250.178,113.454 c 9.281,0 16.787,-7.507 16.787,-16.788 V 16.789 C 266.965,7.508 259.459,0 250.178,0 240.902,0 233.39,7.508 233.39,16.789 v 79.877 c 0,9.281 7.511,16.788 16.788,16.788 z"
   inkscape:connector-curvature="0"
   style="fill:#ffff00" />

	<path
   id="path5048"
   d="m 167.055,147.903 c 6.561,-6.562 6.561,-17.186 0,-23.742 L 110.577,67.679 c -6.562,-6.556 -17.187,-6.556 -23.741,0 -6.561,6.56 -6.561,17.185 0,23.741 l 56.482,56.483 c 3.275,3.274 7.574,4.914 11.869,4.914 4.293,0 8.593,-1.639 11.868,-4.914 z"
   inkscape:connector-curvature="0"
   style="fill:#ffff00" />

	<path
   id="path5050"
   d="M 115.822,214.237 H 35.93 c -9.279,0 -16.788,7.508 -16.788,16.788 0,9.281 7.509,16.788 16.788,16.788 h 79.893 c 9.277,0 16.789,-7.507 16.789,-16.788 -0.001,-9.28 -7.512,-16.788 -16.79,-16.788 z"
   inkscape:connector-curvature="0"
   style="fill:#ffff00" />

	<path
   id="path5052"
   d="m 464.414,214.237 h -79.863 c -9.279,0 -16.787,7.508 -16.787,16.788 0,9.281 7.508,16.788 16.787,16.788 h 79.863 c 9.281,0 16.789,-7.507 16.789,-16.788 0,-9.28 -7.508,-16.788 -16.789,-16.788 z"
   inkscape:connector-curvature="0"
   style="fill:#ffff00" />

	<path
   id="path5054"
   d="m 413.508,67.679 c -6.56,-6.556 -17.186,-6.556 -23.74,0 L 333.3,124.161 c -6.556,6.557 -6.556,17.181 0,23.742 3.28,3.274 7.579,4.914 11.874,4.914 4.293,0 8.586,-1.64 11.867,-4.914 L 413.508,91.42 c 6.556,-6.556 6.556,-17.181 0,-23.741 z"
   inkscape:connector-curvature="0"
   style="fill:#ffff00" />

</g>
      <g
         id="g5058"
         style="fill:#ffff00">
</g>
      <g
         id="g5060"
         style="fill:#ffff00">
</g>
      <g
         id="g5062"
         style="fill:#ffff00">
</g>
      <g
         id="g5064"
         style="fill:#ffff00">
</g>
      <g
         id="g5066"
         style="fill:#ffff00">
</g>
      <g
         id="g5068"
         style="fill:#ffff00">
</g>
      <g
         id="g5070"
         style="fill:#ffff00">
</g>
      <g
         id="g5072"
         style="fill:#ffff00">
</g>
      <g
         id="g5074"
         style="fill:#ffff00">
</g>
      <g
         id="g5076"
         style="fill:#ffff00">
</g>
      <g
         id="g5078"
         style="fill:#ffff00">
</g>
      <g
         id="g5080"
         style="fill:#ffff00">
</g>
      <g
         id="g5082"
         style="fill:#ffff00">
</g>
      <g
         id="g5084"
         style="fill:#ffff00">
</g>
      <g
         id="g5086"
         style="fill:#ffff00">
</g>
    </g>
    <g
       style=""
       id="g3832"
       transform="matrix(0.26458333,0,0,0.26458333,38.863199,71.944881)"
       inkscape:export-xdpi="96"
       inkscape:export-ydpi="96">
      <path
         id="path3762"
         d="m 0,204.799 c 0,0 0,23.7 0,102.402 0,78.702 63.335,142.7 127.428,142.7 56.242,0 63.58,-34.701 128.572,-34.701 64.992,0 72.329,34.701 128.572,34.701 64.093,0 127.428,-63.998 127.428,-142.7 0,-78.702 0,-102.402 0,-102.402 z"
         style="fill:#fcb5b5"
         inkscape:connector-curvature="0" />
      <path
         id="path3764"
         d="M 384.572,62.099 C 328.33,62.099 320.992,96.8 256,96.8 191.008,96.8 183.671,62.099 127.428,62.099 63.335,62.099 0,126.097 0,204.799 c 0,78.702 63.335,142.7 127.428,142.7 56.242,0 63.58,-34.701 128.572,-34.701 64.992,0 72.329,34.701 128.572,34.701 64.093,0 127.428,-63.998 127.428,-142.7 0,-78.702 -63.335,-142.7 -127.428,-142.7 z"
         style="fill:#ff9690"
         inkscape:connector-curvature="0" />
      <g
         id="g3770">
	<path
   id="path3766"
   d="m 144.144,134.762 c -6.504,0 -11.774,5.272 -11.774,11.764 0,6.504 5.269,11.776 11.774,11.776 6.502,0 11.771,-5.272 11.771,-11.776 0,-6.491 -5.27,-11.764 -11.771,-11.764 z"
   style="fill:#fc7576"
   inkscape:connector-curvature="0" />

	<path
   id="path3768"
   d="m 97.063,170.072 c -6.504,0 -11.774,5.272 -11.774,11.764 0,6.504 5.269,11.776 11.774,11.776 6.502,0 11.771,-5.272 11.771,-11.776 10e-4,-6.491 -5.27,-11.764 -11.771,-11.764 z"
   style="fill:#fc7576"
   inkscape:connector-curvature="0" />

</g>
      <path
         id="path3772"
         d="m 424.566,381.188 c -6.503,0 -11.772,5.274 -11.772,11.765 0,6.503 5.269,11.775 11.772,11.775 6.498,0 11.768,-5.272 11.768,-11.775 -10e-4,-6.491 -5.27,-11.765 -11.768,-11.765 z"
         style="fill:#ff9690"
         inkscape:connector-curvature="0" />
      <g
         id="g3774">
</g>
      <g
         id="g3776">
</g>
      <g
         id="g3778">
</g>
      <g
         id="g3780">
</g>
      <g
         id="g3782">
</g>
      <g
         id="g3784">
</g>
      <g
         id="g3786">
</g>
      <g
         id="g3788">
</g>
      <g
         id="g3790">
</g>
      <g
         id="g3792">
</g>
      <g
         id="g3794">
</g>
      <g
         id="g3796">
</g>
      <g
         id="g3798">
</g>
      <g
         id="g3800">
</g>
      <g
         id="g3802">
</g>
    </g>
  </g>
</svg>
